<svg id="Layer_1" data-name="Layer 1" xmlns="http://www.w3.org/2000/svg" width="512" height="512" viewBox="0 0 512 512"><title>dribbble-brands</title><path d="M256,8C119.252,8,8,119.252,8,256S119.252,504,256,504,504,392.748,504,256,392.748,8,256,8ZM419.97,122.366a210.82134,210.82134,0,0,1,47.835,131.955c-6.984-1.477-77.018-15.682-147.502-6.818-5.752-14.041-11.181-26.393-18.617-41.614,78.321-31.977,113.818-77.482,118.284-83.523ZM396.421,97.87c-3.81,5.427-35.697,48.286-111.021,76.519A1130.70416,1130.70416,0,0,0,206.36,50.381,211.2833,211.2833,0,0,1,396.421,97.87ZM165.941,64.62a1351.6222,1351.6222,0,0,1,78.537,122.509c-99.087,26.313-186.36,25.934-195.834,25.809A212.60575,212.60575,0,0,1,165.941,64.62ZM44.17,256.323c0-2.166.043-4.322.108-6.473,9.268.19,111.92,1.513,217.706-30.146,6.064,11.868,11.857,23.915,17.174,35.949C202.559,277.228,132.964,339.18,98.627,397.959A210.98077,210.98077,0,0,1,44.17,256.323Zm81.807,167.113c22.127-45.233,82.178-103.622,167.579-132.756,29.74,77.283,42.039,142.053,45.189,160.638A211.40019,211.40019,0,0,1,125.977,423.436Zm248.38,8.489c-2.171-12.886-13.446-74.897-41.152-151.033,66.38-10.626,124.7,6.768,131.947,9.055A212.19988,212.19988,0,0,1,374.357,431.925Z" style="fill:#aaabaf"/></svg>