<?xml version="1.0" encoding="utf-8"?>
<svg xmlns="http://www.w3.org/2000/svg" xmlns:xlink="http://www.w3.org/1999/xlink" viewBox="0 0 168.54 35.65">
  <defs>
    <style>
      .cls-1{fill:#fff}
    </style>
    <linearGradient id="Безымянный_градиент_39" x1="20.15" x2="20.15" y1=".56" y2="45.57" gradientUnits="userSpaceOnUse">
      <stop offset="0" stop-color="#ff9329"/>
      <stop offset="1" stop-color="#e9560b"/>
    </linearGradient>
    <linearGradient id="Безымянный_градиент_39-2" x1="17.56" x2="18.1" y1=".42" y2="44.77" xlink:href="#Безымянный_градиент_39"/>
  </defs>
  <g id="Слой_2" data-name="Слой 2">
    <g id="Слой_1-2" data-name="Слой 1">
      <path d="M63 24.26A7.74 7.74 0 0 1 61.13 27a8.69 8.69 0 0 1-2.91 1.76 11.72 11.72 0 0 1-7.58 0A8.27 8.27 0 0 1 47.78 27 7.77 7.77 0 0 1 46 24.26a9.45 9.45 0 0 1-.63-3.51V7.46h5.12v12.86a5.94 5.94 0 0 0 .2 1.68 4.26 4.26 0 0 0 .69 1.4 3.21 3.21 0 0 0 1.24 1 4.93 4.93 0 0 0 3.7 0 3.4 3.4 0 0 0 1.25-1 3.9 3.9 0 0 0 .69-1.4 6 6 0 0 0 .22-1.66V7.46h5.15v13.29a9.26 9.26 0 0 1-.63 3.51zM67.78 28.79V7.46H73v21.33zM92.66 28.82a19.32 19.32 0 0 1-4.57.51 13.23 13.23 0 0 1-4.71-.81 11 11 0 0 1-3.71-2.29 10.47 10.47 0 0 1-2.42-3.54 11.57 11.57 0 0 1-.88-4.6 11.77 11.77 0 0 1 .89-4.64 10.33 10.33 0 0 1 2.46-3.54 10.79 10.79 0 0 1 3.67-2.24 13 13 0 0 1 4.55-.78 14 14 0 0 1 4.7.76 9.93 9.93 0 0 1 3.53 2.07l-3.26 3.7a5.57 5.57 0 0 0-2-1.43 6.73 6.73 0 0 0-2.8-.55 6.23 6.23 0 0 0-2.5.49 6.06 6.06 0 0 0-2 1.39 6.22 6.22 0 0 0-1.31 2.11 7.4 7.4 0 0 0-.46 2.66 8.17 8.17 0 0 0 .42 2.72 5.7 5.7 0 0 0 1.25 2.12 5.77 5.77 0 0 0 2 1.39 7.33 7.33 0 0 0 2.78.49 10.45 10.45 0 0 0 1.72-.13 6.61 6.61 0 0 0 1.51-.44v-3.89h-4V16.2h8.8v11.29a16.15 16.15 0 0 1-3.66 1.33zM105.63 9a2.6 2.6 0 0 1-.23 1.07 2.74 2.74 0 0 1-1.51 1.43 2.91 2.91 0 0 1-1.1.21 2.76 2.76 0 0 1-2-.8A2.56 2.56 0 0 1 100 9a2.61 2.61 0 0 1 .21-1 2.41 2.41 0 0 1 .61-.86 3.26 3.26 0 0 1 .9-.59 3 3 0 0 1 3.12.56 2.66 2.66 0 0 1 .6.86 2.54 2.54 0 0 1 .19 1.03zm-5.31 19.79v-15h4.94v15zM109 15.83a8.59 8.59 0 0 1 3.09-1.89 10.35 10.35 0 0 1 3.6-.64 9.71 9.71 0 0 1 3.21.47 4.71 4.71 0 0 1 2.1 1.45 6.13 6.13 0 0 1 1.19 2.47 14.59 14.59 0 0 1 .38 3.54v7.56H118v-1.6a3.68 3.68 0 0 1-1.73 1.45 6.24 6.24 0 0 1-2.52.51 7.8 7.8 0 0 1-1.87-.24 5.47 5.47 0 0 1-1.76-.78 4.27 4.27 0 0 1-1.31-1.45 4.46 4.46 0 0 1-.51-2.23 3.75 3.75 0 0 1 .89-2.62 5.79 5.79 0 0 1 2.29-1.54 12.12 12.12 0 0 1 3.11-.72 32.19 32.19 0 0 1 3.35-.18v-.24a1.83 1.83 0 0 0-.79-1.64 3.36 3.36 0 0 0-1.92-.53 4.85 4.85 0 0 0-2 .45 6.27 6.27 0 0 0-1.67 1.09zm9 6.42h-.63c-.55 0-1.09 0-1.65.08a6.74 6.74 0 0 0-1.47.28 2.75 2.75 0 0 0-1.07.62 1.42 1.42 0 0 0-.42 1.07 1.29 1.29 0 0 0 .24.7 1.46 1.46 0 0 0 .5.49 2.1 2.1 0 0 0 .69.25 4 4 0 0 0 .76.08 3.05 3.05 0 0 0 2.3-.83 3.11 3.11 0 0 0 .8-2.25zM136.09 28.79v-8.2a6.61 6.61 0 0 0-.11-1.2 3.09 3.09 0 0 0-.35-1 1.78 1.78 0 0 0-.67-.69 2.18 2.18 0 0 0-1.1-.26 2.48 2.48 0 0 0-1.16.26 2.19 2.19 0 0 0-.83.71 3.18 3.18 0 0 0-.5 1 4.54 4.54 0 0 0-.16 1.22v8.14h-5v-15H131v2.07h.07a4.87 4.87 0 0 1 .7-.94 4.07 4.07 0 0 1 1-.8 7.05 7.05 0 0 1 1.28-.55 5.38 5.38 0 0 1 1.47-.21 5.53 5.53 0 0 1 2.56.55 4.83 4.83 0 0 1 1.71 1.4 5.52 5.52 0 0 1 .93 2 9 9 0 0 1 .29 2.23v9.28zM150.16 17.46v5.75a2.63 2.63 0 0 0 .4 1.59 1.75 1.75 0 0 0 1.46.53 5.19 5.19 0 0 0 .77-.06 2.64 2.64 0 0 0 .68-.19l.06 3.62a8.07 8.07 0 0 1-1.29.32 9.32 9.32 0 0 1-1.57.13 7.13 7.13 0 0 1-2.53-.38 3.93 3.93 0 0 1-1.64-1.08 4.2 4.2 0 0 1-.89-1.7 8.18 8.18 0 0 1-.27-2.18v-6.35h-2.41v-3.67h2.38V9.84h4.85v3.95h3.52v3.67zM165.83 18.22a5.32 5.32 0 0 0-1.42-1 3.89 3.89 0 0 0-1.71-.39 3.07 3.07 0 0 0-1.29.27.94.94 0 0 0-.58.93.92.92 0 0 0 .64.91 14.39 14.39 0 0 0 2.1.6 11.32 11.32 0 0 1 1.7.51 5.77 5.77 0 0 1 1.55.88 4.19 4.19 0 0 1 1.12 1.32 3.94 3.94 0 0 1 .42 1.87 4.49 4.49 0 0 1-2.06 4 6.49 6.49 0 0 1-2.07.87 9.88 9.88 0 0 1-2.29.27 11.13 11.13 0 0 1-3.6-.59A7.55 7.55 0 0 1 155.4 27l2.78-3a5.51 5.51 0 0 0 1.62 1.2 4.45 4.45 0 0 0 2 .49 2.71 2.71 0 0 0 1.19-.29 1 1 0 0 0 .59-1 1.08 1.08 0 0 0-.72-1 13.22 13.22 0 0 0-2.26-.7 11.33 11.33 0 0 1-1.57-.48 5 5 0 0 1-1.4-.81 4.08 4.08 0 0 1-1-1.27 3.86 3.86 0 0 1-.39-1.8 4.4 4.4 0 0 1 .57-2.31 4.77 4.77 0 0 1 1.48-1.55 6.57 6.57 0 0 1 2-.89 8.65 8.65 0 0 1 2.18-.29 10.55 10.55 0 0 1 3.3.53 7.09 7.09 0 0 1 2.73 1.58z" class="cls-1"/>
      <g opacity=".9">
        <path fill="url(#Безымянный_градиент_39)" d="M38 31.43v.18a4.07 4.07 0 0 1-.82 2.26.61.61 0 0 0-.07.1l-.2.23-.12.13a4.08 4.08 0 0 1-2.87 1.31 3.87 3.87 0 0 1-.95-.09 4.11 4.11 0 0 1-.85-.3l-.25-.13-2.67-1.41-6.2-3.37-4-2.16-13.75-7.43-.35-.19-.36-.2a4.07 4.07 0 0 1 0-7.25l.4-.23 6.62-3.63L15 2.93l.19-.35.2-.36a4.08 4.08 0 0 1 7.26 0l.22.4.17.31 3.48 6.32 9.43 17.36 1.56 2.85c.05.08.09.17.13.25a4.07 4.07 0 0 1 .36 1.72z" opacity=".9"/>
        <path fill="url(#Безымянный_градиент_39-2)" d="M33.5 13.11l-.4-.23-6.62-3.63L23 2.93l-.17-.31-.23-.4a4.07 4.07 0 0 0-7.25 0l-.2.36-.15.35-3.48 6.32-9.43 17.36-.5.91-1.06 1.95c-.05.08-.09.16-.13.24a4.32 4.32 0 0 0-.35 1.15A.88.88 0 0 0 0 31a.82.82 0 0 0 0 .22 1.09 1.09 0 0 0 0 .18v.18a4.17 4.17 0 0 0 1.38 2.9.69.69 0 0 1 .13.11l.1.08.16.12a4 4 0 0 0 2.23.85h.1a3.87 3.87 0 0 0 1-.09 4.11 4.11 0 0 0 .85-.3l.25-.12 26.9-14.57.36-.2a4.07 4.07 0 0 0 .04-7.25z" opacity=".85"/>
      </g>
    </g>
  </g>
</svg>
