<svg id="Layer_1" data-name="Layer 1" xmlns="http://www.w3.org/2000/svg" width="512" height="512" viewBox="0 0 512 512"><title>twitter-brands</title><path d="M459.37,151.716c.325,4.548.325,9.097.325,13.645,0,138.72-105.583,298.558-298.558,298.558A296.53353,296.53353,0,0,1,0,416.813a217.07984,217.07984,0,0,0,25.34,1.299A210.15143,210.15143,0,0,0,155.614,373.28a105.119,105.119,0,0,1-98.112-72.772,132.33084,132.33084,0,0,0,19.818,1.624,110.982,110.982,0,0,0,27.614-3.573A104.948,104.948,0,0,1,20.791,195.574v-1.299a105.67919,105.67919,0,0,0,47.431,13.319A105.09027,105.09027,0,0,1,35.735,67.249,298.27055,298.27055,0,0,0,252.1,177.056a118.45732,118.45732,0,0,1-2.599-24.04A105.034,105.034,0,0,1,431.105,81.219a206.59507,206.59507,0,0,0,66.599-25.34,104.65058,104.65058,0,0,1-46.132,57.827,210.36182,210.36182,0,0,0,60.426-16.243,225.56653,225.56653,0,0,1-52.628,54.253Z" style="fill:#aaabaf"/></svg>